<svg xmlns="http://www.w3.org/2000/svg" width="237.89" height="35" viewBox="0 0 237.89 35"><rect class="svg__rect" x="0" y="0" width="142.71999999999997" height="35" fill="#147999"/><rect class="svg__rect" x="140.71999999999997" y="0" width="97.17000000000002" height="35" fill="#FFFFFF"/><path class="svg__text" d="M13.95 18.19L13.95 18.19L13.95 17.39Q13.95 16.19 14.38 15.27Q14.80 14.35 15.60 13.85Q16.40 13.35 17.45 13.35L17.45 13.35Q18.86 13.35 19.73 14.12Q20.59 14.89 20.73 16.29L20.73 16.29L19.25 16.29Q19.14 15.37 18.71 14.96Q18.28 14.55 17.45 14.55L17.45 14.55Q16.48 14.55 15.97 15.26Q15.45 15.96 15.44 17.33L15.44 17.33L15.44 18.09Q15.44 19.47 15.93 20.20Q16.43 20.92 17.38 20.92L17.38 20.92Q18.25 20.92 18.69 20.53Q19.13 20.14 19.25 19.22L19.25 19.22L20.73 19.22Q20.60 20.59 19.72 21.35Q18.84 22.12 17.38 22.12L17.38 22.12Q16.36 22.12 15.59 21.63Q14.81 21.15 14.39 20.26Q13.97 19.37 13.95 18.19ZM26.52 22L25.04 22L25.04 13.47L28.04 13.47Q29.52 13.47 30.32 14.13Q31.12 14.79 31.12 16.05L31.12 16.05Q31.12 16.90 30.71 17.48Q30.30 18.06 29.56 18.37L29.56 18.37L31.47 21.92L31.47 22L29.89 22L28.17 18.71L26.52 18.71L26.52 22ZM26.52 14.66L26.52 17.52L28.05 17.52Q28.80 17.52 29.22 17.15Q29.64 16.77 29.64 16.11L29.64 16.11Q29.64 15.43 29.25 15.05Q28.86 14.68 28.09 14.66L28.09 14.66L26.52 14.66ZM41.09 22L35.52 22L35.52 13.47L41.05 13.47L41.05 14.66L37.00 14.66L37.00 17.02L40.50 17.02L40.50 18.19L37.00 18.19L37.00 20.82L41.09 20.82L41.09 22ZM46.07 22L44.53 22L47.75 13.47L49.08 13.47L52.31 22L50.76 22L50.06 20.01L46.76 20.01L46.07 22ZM48.41 15.28L47.18 18.82L49.65 18.82L48.41 15.28ZM57.95 14.66L55.31 14.66L55.31 13.47L62.08 13.47L62.08 14.66L59.42 14.66L59.42 22L57.95 22L57.95 14.66ZM71.41 22L65.83 22L65.83 13.47L71.37 13.47L71.37 14.66L67.31 14.66L67.31 17.02L70.82 17.02L70.82 18.19L67.31 18.19L67.31 20.82L71.41 20.82L71.41 22ZM78.06 22L75.61 22L75.61 13.47L78.13 13.47Q79.26 13.47 80.13 13.97Q81.01 14.48 81.49 15.40Q81.97 16.33 81.97 17.52L81.97 17.52L81.97 17.95Q81.97 19.16 81.49 20.08Q81.00 21.00 80.11 21.50Q79.22 22 78.06 22L78.06 22ZM77.09 14.66L77.09 20.82L78.06 20.82Q79.22 20.82 79.85 20.09Q80.47 19.36 80.48 17.99L80.48 17.99L80.48 17.52Q80.48 16.13 79.88 15.40Q79.27 14.66 78.13 14.66L78.13 14.66L77.09 14.66ZM93.79 22L91.82 13.47L93.30 13.47L94.62 19.88L96.25 13.47L97.49 13.47L99.10 19.89L100.41 13.47L101.89 13.47L99.92 22L98.50 22L96.88 15.77L95.22 22L93.79 22ZM107.52 22L106.05 22L106.05 13.47L107.52 13.47L107.52 22ZM114.01 14.66L111.38 14.66L111.38 13.47L118.14 13.47L118.14 14.66L115.48 14.66L115.48 22L114.01 22L114.01 14.66ZM123.38 22L121.90 22L121.90 13.47L123.38 13.47L123.38 17.02L127.20 17.02L127.20 13.47L128.67 13.47L128.67 22L127.20 22L127.20 18.21L123.38 18.21L123.38 22Z" fill="#FFFFFF"/><path class="svg__text" d="M158.88 22L154.91 22L154.91 13.60L158.88 13.60Q160.26 13.60 161.33 14.12Q162.40 14.63 162.99 15.58Q163.57 16.53 163.57 17.80L163.57 17.80Q163.57 19.07 162.99 20.02Q162.40 20.97 161.33 21.48Q160.26 22 158.88 22L158.88 22ZM157.29 15.50L157.29 20.10L158.79 20.10Q159.86 20.10 160.52 19.49Q161.17 18.88 161.17 17.80L161.17 17.80Q161.17 16.72 160.52 16.11Q159.86 15.50 158.79 15.50L158.79 15.50L157.29 15.50ZM167.87 17.80L167.87 17.80Q167.87 16.55 168.48 15.55Q169.08 14.56 170.15 14.00Q171.21 13.43 172.54 13.43L172.54 13.43Q173.87 13.43 174.93 14.00Q176.00 14.56 176.60 15.55Q177.21 16.55 177.21 17.80L177.21 17.80Q177.21 19.05 176.60 20.04Q176.00 21.04 174.94 21.60Q173.87 22.17 172.54 22.17L172.54 22.17Q171.21 22.17 170.15 21.60Q169.08 21.04 168.48 20.04Q167.87 19.05 167.87 17.80ZM170.27 17.80L170.27 17.80Q170.27 18.51 170.57 19.05Q170.87 19.60 171.39 19.90Q171.91 20.20 172.54 20.20L172.54 20.20Q173.18 20.20 173.69 19.90Q174.21 19.60 174.51 19.05Q174.81 18.51 174.81 17.80L174.81 17.80Q174.81 17.09 174.51 16.54Q174.21 16 173.69 15.70Q173.18 15.40 172.54 15.40L172.54 15.40Q171.90 15.40 171.39 15.70Q170.87 16 170.57 16.54Q170.27 17.09 170.27 17.80ZM181.51 17.80L181.51 17.80Q181.51 16.54 182.11 15.54Q182.70 14.55 183.76 13.99Q184.81 13.43 186.13 13.43L186.13 13.43Q187.28 13.43 188.20 13.84Q189.13 14.25 189.74 15.02L189.74 15.02L188.23 16.39Q187.42 15.40 186.25 15.40L186.25 15.40Q185.56 15.40 185.03 15.70Q184.50 16 184.20 16.54Q183.91 17.09 183.91 17.80L183.91 17.80Q183.91 18.51 184.20 19.05Q184.50 19.60 185.03 19.90Q185.56 20.20 186.25 20.20L186.25 20.20Q187.42 20.20 188.23 19.22L188.23 19.22L189.74 20.58Q189.13 21.35 188.21 21.76Q187.28 22.17 186.13 22.17L186.13 22.17Q184.81 22.17 183.76 21.61Q182.70 21.05 182.11 20.05Q181.51 19.06 181.51 17.80ZM196.63 22L194.28 22L194.28 13.60L196.63 13.60L196.63 17.09L199.88 13.60L202.50 13.60L199.07 17.32L202.68 22L199.92 22L197.52 18.95L196.63 19.90L196.63 22ZM213.53 22L206.79 22L206.79 13.60L213.38 13.60L213.38 15.44L209.14 15.44L209.14 16.85L212.87 16.85L212.87 18.63L209.14 18.63L209.14 20.17L213.53 20.17L213.53 22ZM220.71 22L218.34 22L218.34 13.60L222.18 13.60Q223.32 13.60 224.16 13.98Q225.00 14.35 225.45 15.06Q225.91 15.76 225.91 16.71L225.91 16.71Q225.91 17.62 225.48 18.30Q225.06 18.98 224.27 19.36L224.27 19.36L226.08 22L223.53 22L222.01 19.77L220.71 19.77L220.71 22ZM220.71 15.47L220.71 17.93L222.03 17.93Q222.77 17.93 223.14 17.61Q223.51 17.29 223.51 16.71L223.51 16.71Q223.51 16.12 223.14 15.79Q222.77 15.47 222.03 15.47L222.03 15.47L220.71 15.47Z" fill="#000000" x="153.71999999999997"/></svg>