<svg xmlns="http://www.w3.org/2000/svg" width="236.72999999999996" height="35" viewBox="0 0 236.72999999999996 35"><rect class="svg__rect" x="0" y="0" width="142.71999999999997" height="35" fill="#147999"/><rect class="svg__rect" x="140.71999999999997" y="0" width="96.00999999999999" height="35" fill="#DBFF0D"/><path class="svg__text" d="M13.95 18.19L13.95 18.19L13.95 17.39Q13.95 16.19 14.38 15.27Q14.80 14.35 15.60 13.85Q16.40 13.35 17.45 13.35L17.45 13.35Q18.86 13.35 19.73 14.12Q20.59 14.89 20.73 16.29L20.73 16.29L19.25 16.29Q19.14 15.37 18.71 14.96Q18.28 14.55 17.45 14.55L17.45 14.55Q16.48 14.55 15.97 15.26Q15.45 15.96 15.44 17.33L15.44 17.33L15.44 18.09Q15.44 19.47 15.93 20.20Q16.43 20.92 17.38 20.92L17.38 20.92Q18.25 20.92 18.69 20.53Q19.13 20.14 19.25 19.22L19.25 19.22L20.73 19.22Q20.60 20.59 19.72 21.35Q18.84 22.12 17.38 22.12L17.38 22.12Q16.36 22.12 15.59 21.63Q14.81 21.15 14.39 20.26Q13.97 19.37 13.95 18.19ZM26.52 22L25.04 22L25.04 13.47L28.04 13.47Q29.52 13.47 30.32 14.13Q31.12 14.79 31.12 16.05L31.12 16.05Q31.12 16.90 30.71 17.48Q30.30 18.06 29.56 18.37L29.56 18.37L31.47 21.92L31.47 22L29.89 22L28.17 18.71L26.52 18.71L26.52 22ZM26.52 14.66L26.52 17.52L28.05 17.52Q28.80 17.52 29.22 17.15Q29.64 16.77 29.64 16.11L29.64 16.11Q29.64 15.43 29.25 15.05Q28.86 14.68 28.09 14.66L28.09 14.66L26.52 14.66ZM41.09 22L35.52 22L35.52 13.47L41.05 13.47L41.05 14.66L37.00 14.66L37.00 17.02L40.50 17.02L40.50 18.19L37.00 18.19L37.00 20.82L41.09 20.82L41.09 22ZM46.07 22L44.53 22L47.75 13.47L49.08 13.47L52.31 22L50.76 22L50.06 20.01L46.76 20.01L46.07 22ZM48.41 15.28L47.18 18.82L49.65 18.82L48.41 15.28ZM57.95 14.66L55.31 14.66L55.31 13.47L62.08 13.47L62.08 14.66L59.42 14.66L59.42 22L57.95 22L57.95 14.66ZM71.41 22L65.83 22L65.83 13.47L71.37 13.47L71.37 14.66L67.31 14.66L67.31 17.02L70.82 17.02L70.82 18.19L67.31 18.19L67.31 20.82L71.41 20.82L71.41 22ZM78.06 22L75.61 22L75.61 13.47L78.13 13.47Q79.26 13.47 80.13 13.97Q81.01 14.48 81.49 15.40Q81.97 16.33 81.97 17.52L81.97 17.52L81.97 17.95Q81.97 19.16 81.49 20.08Q81.00 21.00 80.11 21.50Q79.22 22 78.06 22L78.06 22ZM77.09 14.66L77.09 20.82L78.06 20.82Q79.22 20.82 79.85 20.09Q80.47 19.36 80.48 17.99L80.48 17.99L80.48 17.52Q80.48 16.13 79.88 15.40Q79.27 14.66 78.13 14.66L78.13 14.66L77.09 14.66ZM93.79 22L91.82 13.47L93.30 13.47L94.62 19.88L96.25 13.47L97.49 13.47L99.10 19.89L100.41 13.47L101.89 13.47L99.92 22L98.50 22L96.88 15.77L95.22 22L93.79 22ZM107.52 22L106.05 22L106.05 13.47L107.52 13.47L107.52 22ZM114.01 14.66L111.38 14.66L111.38 13.47L118.14 13.47L118.14 14.66L115.48 14.66L115.48 22L114.01 22L114.01 14.66ZM123.38 22L121.90 22L121.90 13.47L123.38 13.47L123.38 17.02L127.20 17.02L127.20 13.47L128.67 13.47L128.67 22L127.20 22L127.20 18.21L123.38 18.21L123.38 22Z" fill="#FFFFFF"/><path class="svg__text" d="M157.29 22L154.91 22L154.91 13.60L158.75 13.60Q159.89 13.60 160.73 13.98Q161.57 14.35 162.03 15.06Q162.48 15.76 162.48 16.71L162.48 16.71Q162.48 17.66 162.03 18.35Q161.57 19.05 160.73 19.42Q159.89 19.80 158.75 19.80L158.75 19.80L157.29 19.80L157.29 22ZM157.29 15.47L157.29 17.93L158.61 17.93Q159.34 17.93 159.71 17.61Q160.08 17.29 160.08 16.71L160.08 16.71Q160.08 16.12 159.71 15.80Q159.34 15.47 158.61 15.47L158.61 15.47L157.29 15.47ZM169.36 18.95L166.16 13.60L168.67 13.60L170.66 16.94L172.65 13.60L174.95 13.60L171.74 18.99L171.74 22L169.36 22L169.36 18.95ZM180.83 15.48L178.25 15.48L178.25 13.60L185.77 13.60L185.77 15.48L183.20 15.48L183.20 22L180.83 22L180.83 15.48ZM192.52 22L190.14 22L190.14 13.60L192.52 13.60L192.52 16.76L195.76 16.76L195.76 13.60L198.13 13.60L198.13 22L195.76 22L195.76 18.72L192.52 18.72L192.52 22ZM202.87 17.80L202.87 17.80Q202.87 16.55 203.47 15.55Q204.07 14.56 205.14 14.00Q206.20 13.43 207.53 13.43L207.53 13.43Q208.86 13.43 209.92 14.00Q210.99 14.56 211.59 15.55Q212.20 16.55 212.20 17.80L212.20 17.80Q212.20 19.05 211.59 20.04Q210.99 21.04 209.93 21.60Q208.87 22.17 207.53 22.17L207.53 22.17Q206.20 22.17 205.14 21.60Q204.07 21.04 203.47 20.04Q202.87 19.05 202.87 17.80ZM205.26 17.80L205.26 17.80Q205.26 18.51 205.57 19.05Q205.87 19.60 206.38 19.90Q206.90 20.20 207.53 20.20L207.53 20.20Q208.17 20.20 208.69 19.90Q209.20 19.60 209.50 19.05Q209.80 18.51 209.80 17.80L209.80 17.80Q209.80 17.09 209.50 16.54Q209.20 16 208.69 15.70Q208.17 15.40 207.53 15.40L207.53 15.40Q206.89 15.40 206.38 15.70Q205.87 16 205.57 16.54Q205.26 17.09 205.26 17.80ZM219.26 22L216.93 22L216.93 13.60L218.89 13.60L222.60 18.07L222.60 13.60L224.92 13.60L224.92 22L222.97 22L219.26 17.52L219.26 22Z" fill="#FFFFFF" x="153.71999999999997"/></svg>